<svg xmlns="http://www.w3.org/2000/svg" viewBox="0 0 24 24" role="img" aria-label="Instagram">
  <path fill="#111" d="M7.5 2h9A5.5 5.5 0 0 1 22 7.5v9A5.5 5.5 0 0 1 16.5 22h-9A5.5 5.5 0 0 1 2 16.5v-9A5.5 5.5 0 0 1 7.5 2zm0 2A3.5 3.5 0 0 0 4 7.5v9A3.5 3.5 0 0 0 7.5 20h9a3.5 3.5 0 0 0 3.5-3.5v-9A3.5 3.5 0 0 0 16.5 4h-9z"/>
  <path fill="#111" d="M12 7.2A4.8 4.8 0 1 1 7.2 12 4.8 4.8 0 0 1 12 7.2zm0 2A2.8 2.8 0 1 0 14.8 12 2.8 2.8 0 0 0 12 9.2z"/>
  <circle fill="#111" cx="17.35" cy="6.65" r="1.05"/>
</svg>
